<?xml version="1.0" encoding="UTF-8" standalone="no"?>
<svg
   xmlns:dc="http://purl.org/dc/elements/1.1/"
   xmlns:cc="http://creativecommons.org/ns#"
   xmlns:rdf="http://www.w3.org/1999/02/22-rdf-syntax-ns#"
   xmlns:svg="http://www.w3.org/2000/svg"
   xmlns="http://www.w3.org/2000/svg"
   xmlns:sodipodi="http://sodipodi.sourceforge.net/DTD/sodipodi-0.dtd"
   xmlns:inkscape="http://www.inkscape.org/namespaces/inkscape"
   version="1.1"
   id="svg1756"
   width="256"
   height="256"
   viewBox="0 0 256 256"
   sodipodi:docname="icon-inactive.svg"
   inkscape:version="0.92.2 5c3e80d, 2017-08-06">
  <sodipodi:namedview
     pagecolor="#ffffff"
     bordercolor="#666666"
     borderopacity="1"
     objecttolerance="10"
     gridtolerance="10"
     guidetolerance="10"
     inkscape:pageopacity="0"
     inkscape:pageshadow="2"
     inkscape:window-width="2560"
     inkscape:window-height="1598"
     id="namedview7"
     showgrid="false"
     fit-margin-top="0"
     fit-margin-left="0"
     fit-margin-right="0"
     fit-margin-bottom="0"
     inkscape:zoom="2.4583333"
     inkscape:cx="5.0668177"
     inkscape:cy="150.95798"
     inkscape:window-x="0"
     inkscape:window-y="54"
     inkscape:window-maximized="1"
     inkscape:current-layer="svg1756" />
  <metadata
     id="metadata1762">
    <rdf:RDF>
      <cc:Work
         rdf:about="">
        <dc:format>image/svg+xml</dc:format>
        <dc:type
           rdf:resource="http://purl.org/dc/dcmitype/StillImage" />
        <dc:title></dc:title>
      </cc:Work>
    </rdf:RDF>
  </metadata>
  <defs
     id="defs1760" />
  <path
     style="fill:#999999;fill-opacity:1;stroke:none;stroke-width:1.89000034;stroke-miterlimit:4;stroke-dasharray:none;stroke-opacity:1"
     d="M 129.11719 0.001953125 C 120.1063 -0.036213124 110.99633 0.81835625 102.73047 2.7539062 C 87.234874 5.2359862 73.751026 9.3620283 60.041016 16.074219 C 43.926981 24.716089 32.246855 38.902853 25.771484 47.132812 C 17.725311 57.359242 10.029144 76.395983 6.0507812 89.501953 C 2.7904026 101.55547 0.55562258 121.18111 0.01171875 136.41016 C -0.19020514 142.06402 2.2858057 157.6533 3.6738281 163.13086 C 5.7667311 171.39021 9.8101082 179.09455 14.162109 186.37891 C 20.620411 197.18926 28.423687 207.23971 37.085938 216.30469 C 44.973652 224.55977 53.519191 232.4386 63.255859 238.28906 C 74.13865 244.82816 86.182783 249.64012 98.503906 252.47266 C 112.48727 255.6893 127.13458 256.78058 141.4082 255.4375 C 155.31333 254.12969 169.12649 250.36275 181.98242 244.80078 C 190.83624 240.97082 199.00886 235.46494 206.56836 229.40039 C 211.6829 225.29728 223.43913 215.28763 220.41602 215.36523 C 217.34602 215.444 213.84521 214.83472 211.48828 217.00195 C 209.64841 218.69374 203.37305 222.2168 203.37305 222.2168 C 193.33306 226.78242 183.12366 232.39304 172.33594 235.02539 C 162.5889 237.40379 156.57176 239.57715 147.60547 238.75391 C 140.7616 238.12554 133.8121 238.07622 127.05859 236.72461 C 102.52137 231.81387 82.051401 214.24903 67.408203 194.92773 C 65.779028 192.77807 59.120516 186.05085 60.804688 185.18945 C 61.2342 184.96976 62.276532 185.92232 64.984375 186.50977 C 100.0572 194.11858 175.48134 155.0969 205.27148 165.80078 C 212.80324 168.50702 214.68571 172.17989 210.75 181.37695 C 208.8891 185.72553 199.5918 193.06445 199.5918 193.06445 L 242.01953 191.9375 C 242.01953 191.9375 255.51823 156.65462 255.95508 140.29883 C 256.33728 125.98961 254.25228 109.58066 251.55273 97.332031 C 248.32915 82.705731 243.11116 69.604664 234.90625 57.339844 C 225.73898 43.636464 227.4426 46.415545 217.92383 36.609375 C 207.74277 26.120925 190.23581 12.456454 181.53906 9.5332031 C 175.56142 7.5239231 162.60291 4.210255 154.91211 2.609375 C 147.0399 0.97074 138.12808 0.040119374 129.11719 0.001953125 z M 99.136719 9.5546875 C 99.136719 9.5546875 138.66314 24.922406 152.62109 30.603516 C 139.22711 30.379136 130.99059 29.412898 123.29492 31.742188 C 119.53423 32.585217 101.04868 45.282511 98.078125 54.644531 C 96.052628 46.949871 103.68425 35.622526 103.02734 32.535156 C 101.40318 24.901936 99.136719 9.5546875 99.136719 9.5546875 z M 186.52734 49.033203 C 199.55707 51.914893 222.59393 62.974793 234.55078 72.882812 C 234.55078 72.882812 224.90888 86.563918 217.72461 90.673828 C 207.63165 97.399378 188.79492 108.92773 188.79492 108.92773 C 188.79492 108.92773 204.2544 80.567431 205.86914 76.712891 C 205.66088 61.576271 191.65676 54.464283 186.52734 49.033203 z M 99.142578 74.558594 C 102.32929 74.550442 105.31255 75.365406 107.14062 77.353516 C 110.23797 80.992216 105.44645 86.650654 102.67773 90.308594 C 98.418127 95.936284 93.804 100.51848 87.318359 103.28906 C 84.565302 104.46545 74.561967 111.58837 71.759766 112.63281 C 70.554553 112.05049 73.745785 94.595611 75.144531 92.087891 C 76.626648 86.672291 82.867515 81.792798 87.855469 77.923828 C 90.610966 75.938664 95.045381 74.569074 99.142578 74.558594 z M 151.46289 97.939453 C 158.73963 98.041329 165.10533 101.75729 167.72461 112.32422 C 170.11254 121.95763 151.89185 130.12448 141.60547 131.14648 C 134.57736 129.65916 101.43164 131.92188 101.43164 131.92188 C 101.43164 131.92188 119.21402 116.37317 124.91602 108.5957 C 131.24649 103.65171 142.10708 97.808469 151.46289 97.939453 z "
     id="path1572"
     inkscape:export-xdpi="18"
     inkscape:export-ydpi="18" />
</svg>
