<?xml version="1.0" encoding="UTF-8" standalone="no"?>
<!-- Created with Inkscape (http://www.inkscape.org/) -->

<svg
   xmlns:dc="http://purl.org/dc/elements/1.1/"
   xmlns:cc="http://creativecommons.org/ns#"
   xmlns:rdf="http://www.w3.org/1999/02/22-rdf-syntax-ns#"
   xmlns:svg="http://www.w3.org/2000/svg"
   xmlns="http://www.w3.org/2000/svg"
   xmlns:sodipodi="http://sodipodi.sourceforge.net/DTD/sodipodi-0.dtd"
   xmlns:inkscape="http://www.inkscape.org/namespaces/inkscape"
   version="1.1"
   id="svg1756"
   width="6051.4102"
   height="6051.4102"
   viewBox="0 0 6051.4101 6051.4101"
   sodipodi:docname="med-possum.svg"
   inkscape:version="0.92.2 5c3e80d, 2017-08-06"
   inkscape:export-filename="/home/blake/github/possum/possum.svg.png"
   inkscape:export-xdpi="11.9"
   inkscape:export-ydpi="11.9">
  <metadata
     id="metadata1762">
    <rdf:RDF>
      <cc:Work
         rdf:about="">
        <dc:format>image/svg+xml</dc:format>
        <dc:type
           rdf:resource="http://purl.org/dc/dcmitype/StillImage" />
        <dc:title />
      </cc:Work>
    </rdf:RDF>
  </metadata>
  <defs
     id="defs1760" />
  <sodipodi:namedview
     pagecolor="#ffffff"
     bordercolor="#666666"
     borderopacity="1"
     objecttolerance="10"
     gridtolerance="10"
     guidetolerance="10"
     inkscape:pageopacity="0"
     inkscape:pageshadow="2"
     inkscape:window-width="2560"
     inkscape:window-height="1598"
     id="namedview1758"
     showgrid="false"
     inkscape:zoom="0.16555278"
     inkscape:cx="1754.4549"
     inkscape:cy="1675.1933"
     inkscape:window-x="0"
     inkscape:window-y="54"
     inkscape:window-maximized="1"
     inkscape:current-layer="svg1756"
     showguides="false"
     fit-margin-top="0"
     fit-margin-left="0"
     fit-margin-right="0"
     fit-margin-bottom="0" />
  <path
     id="path1572"
     style="fill:#000000;fill-opacity:1;stroke:#000000;stroke-width:1.88999999;stroke-miterlimit:4;stroke-dasharray:none;stroke-opacity:1"
     d="m 3325.7348,1282.782 c 200.9408,-71.6593 324.7692,-247.8121 202.7483,-304.32744 -32.0715,-29.08212 347.9713,12.14598 159.6826,123.49034 -207.6638,62.2554 -167.7783,153.4252 -362.4309,180.8371 z m 244.0944,476.5314 c 35.3319,-292.9501 -225.7358,-349.4045 -451.675,-290.9644 119.5114,-97.6489 559.3865,-79.2064 457.9038,37.7543 -29.4512,63.0012 162.716,-9.9149 96.2925,111.6768 -13.3824,59.0799 -47.2021,115.0644 -102.5213,141.5333 z m -123.5614,235.0594 -1.3729,0.5413 z m 33.1959,115.257 c 173.2047,-154.2738 -271.9916,-78.7056 0,0 z m -126.6438,208.203 c -186.6036,13.6993 -376.3075,-110.6506 -126.6055,-145.6485 -4.4865,-172.9764 -294.5753,45.7017 -145.3548,-137.5941 187.2356,-179.044 694.5826,-212.6308 709.6922,82.2356 -134.2077,88.8248 -273.993,185.0217 -437.7319,201.007 z m -1389.7552,270.9118 c -84.0563,-66.8949 -268.1193,-47.546 -54.0399,-107.3097 187.6135,-109.4414 175.6499,109.8159 54.0399,107.3097 z m 1185.2176,500.5155 c 225.2581,-168.4734 384.528,-556.6021 -44.1093,-461.9868 -149.9435,87.416 -32.6819,354.2684 44.1093,461.9868 z M 2745.3327,1538.2617 c 77.9451,241.8886 -183.9109,453.4025 -383.4749,528.5159 -158.9534,65.1995 -122.4587,-17.5877 39.3738,-45.918 -16.4126,-133.4109 28.9614,-217.6033 -114.8396,-73.9944 -188.1282,173.3126 -474.8823,399.9694 -508.8527,632.3347 274.8351,105.6047 578.5032,5.4257 874.4859,19.9007 333.6294,-3.5522 653.4476,-97.7977 1001.8628,90.8122 -114.3119,116.7657 -646.4267,596.9834 -519.0769,478.2875 -165.0573,86.7263 -172.4383,-705.2604 -238.4775,-424.7546 24.6534,216.7581 -71.7682,501.8215 112.9901,635.6517 117.1407,-8.2473 336.9849,-222.712 574.374,-263.8691 154.2413,-106.3076 387.731,-18.6836 526.8605,-92.682 -27.2969,112.4543 -152.0558,434.9226 38.8879,192.5302 69.8402,-150.2047 241.7127,-124.5042 148.7037,36.5297 212.4516,88.1155 401.3921,-118.8796 648.5665,-99.9329 89.3042,-71.26 -49.4963,128.4502 -104.6765,234.9788 -241.3912,149.8837 -642.3664,50.016 -645.6319,-125.0988 -465.5579,382.3535 -128.631,-235.7987 -302.4893,-106.3209 -230.0477,23.7065 -486.0015,2.2759 -661.1562,190.6752 -152.3966,207.9629 -470.5743,127.2079 -405.2396,-165.7564 81.3313,-1044.6199 -781.7595,-190.2286 -1166.4156,-608.8251 81.181,-232.33 320.9536,-380.8087 481.8588,-560.4537 161.7638,-119.5415 320.0067,-320.4664 445.5841,-508.1862 71.7545,-107.2626 439.1708,-201.8424 172.2381,-347.693 -674.0857,-453.3086 -11.5168,-284.80706 214.3308,-313.04661 307.1647,1.94933 371.9382,55.0999 302.5972,96.76705 -473.2101,-113.98015 -529.9155,-2.92733 -627.8856,4.80863 -126.1127,9.95825 300.3076,309.75953 479.4927,184.48753 72.2058,-74.1977 432.8615,-250.11065 205.2742,-78.8678 -100.3694,72.055 -224.8956,331.3153 -259.013,305.9716 -104.7103,-65.874 -368.4872,24.8496 -330.2518,183.1481 z m 1997.6741,113.269 c -246.0169,55.0702 -440.9522,241.8554 -663.7448,352.1509 165.4148,-199.8671 404.8882,-333.7621 661.6294,-465.3899 43.8278,-343.0975 -364.0907,-108.3576 -550.7329,-275.6053 -17.3965,-17.0404 10.5472,-36.4996 113.4416,3.5969 204.3186,41.2372 600.3043,5.8269 659.62,195.2618 -67.7619,69.3524 -134.7319,142.9777 -220.2133,189.9856 z m 167.4804,-345.1295 C 4401.4609,837.8094 3735.0735,580.46371 3057.6367,513.83165 2527.005,487.72666 1901.8143,718.59429 1474.6107,1101.145 1179.8205,1389.3242 893.94809,1714.7006 758.04369,2104.5868 612.8717,2521.0603 373.66909,3724.2794 688.29433,3428.7067 c 267.22345,-106.6041 623.41367,3.2356 702.47237,307.191 120.4626,381.2525 363.6525,462.8457 390.3314,462.6915 438.0951,104.093 1456.0768,162.8609 996.9495,29.2121 -149.9369,-4.9672 -816.7686,-464.4367 -629.0535,-361.2211 388.9029,-99.6097 790.39,-108.7146 1186.3319,-150.7714 484.1338,-51.6803 163.1,425.1068 348.2773,510.7491 130.0545,60.1486 290.7145,-1.2693 425.7349,-48.6881 52.6501,-18.4908 -294.1031,-217.8459 -148.0959,-432.96 565.7995,-122.0322 1080.4431,-171.23 1053.9452,20.0006 60.5425,380.5927 -410.2052,576.0866 -148.5325,515.1122 231.2516,-29.9482 439.5721,-17.7328 501.0433,-295.6576 162.4702,-225.8436 87.5976,-486.083 137.2931,-740.6392 -33.0863,-541.1879 -50.0896,-1187.9144 -338.6249,-1610.0536 -70.4736,-120.2983 -149.1425,-237.1249 -255.8793,-327.271 z m 7.0087,3524.7095 C 4300.1678,5588.3665 3221.4212,5820.8531 2312.9884,5571.0619 1582.6825,5390.7195 1015.562,4816.9384 638.3123,4177.9256 469.77443,3915.3051 395.40539,3600.4433 434.27058,3288.3198 c 11.08841,-285.8376 57.08329,-571.5384 128.30183,-848.263 48.99491,-190.3731 208.93583,-648.3255 204.12664,-552.5459 -102.43262,57.9116 -438.40634,236.6269 -209.13156,4.7161 764.28531,-545.8333 73.30647,-535.7709 255.21863,-563.8518 C 1240.2669,1146.3174 1556.9471,888.38664 1954.6288,682.51414 2723.6121,319.94577 3145.6266,468.66511 3526.7675,506.99221 c 257.6975,25.91375 737.7095,259.12812 766.193,130.73265 127.1056,179.45313 386.3812,349.05731 573.2518,514.31454 -35.9386,-122.52 -26.5419,-52.9865 -35.2807,-97.3818 319.8571,274.8415 315.9965,402.448 525.3148,768.2624 246.6917,483.5151 318.505,1047.476 282.1681,1586.533 -47.2429,304.8498 -166.0306,593.7774 -283.8801,875.763 -196.3917,121.8117 -1025.5224,49.3977 -708.4769,-68.2029 171.4404,-83.9465 394.9254,-301.047 273.9025,-467.4181 -452.8543,-10.1371 -352.5742,-37.9231 -908.8389,39.8056 -118.2708,203.8785 208.1774,227.6028 212.646,459.8564 -179.9959,33.0971 -408.7936,31.1229 -610.1103,73.0205 -132.2679,-146.789 75.2125,-608.3436 -300.7704,-517.6353 -303.2525,35.0326 -607.0134,101.2321 -913.1154,87.1194 -37.2653,230.2176 855.2349,315.0648 566.0673,572.0008 -430.7547,-124.8605 -500.3976,-15.2518 -1325.7664,-221.5264 160.7306,203.4669 319.9767,398.2252 528.5834,573.8868 303.8929,269.729 680.8072,475.77 1091.2372,484.2704 531.5105,39.4139 1191.1407,-176.9346 1532.8039,-518.9794 25.1738,-6.83 154.3786,13.5737 124.7995,49.6969 z"
     inkscape:connector-curvature="0"
     sodipodi:nodetypes="cccccccccccccccccccccccccccccccccccccccccccccccacccsccccccccccccccsccccccsscccccccccccsccccsccccccccccccccccccc"
     inkscape:export-xdpi="10"
     inkscape:export-ydpi="10"
     inkscape:export-filename="/home/blake/github/possum/path1572.png" />
</svg>
