<?xml version="1.0" encoding="UTF-8" standalone="no"?>
<svg
   xmlns:dc="http://purl.org/dc/elements/1.1/"
   xmlns:cc="http://creativecommons.org/ns#"
   xmlns:rdf="http://www.w3.org/1999/02/22-rdf-syntax-ns#"
   xmlns:svg="http://www.w3.org/2000/svg"
   xmlns="http://www.w3.org/2000/svg"
   xmlns:sodipodi="http://sodipodi.sourceforge.net/DTD/sodipodi-0.dtd"
   xmlns:inkscape="http://www.inkscape.org/namespaces/inkscape"
   viewBox="0 -256 1000 1000"
   id="svg2"
   version="1.1"
   inkscape:version="0.92.2 5c3e80d, 2017-08-06"
   width="1000"
   height="1000"
   sodipodi:docname="onOff.svg">
  <metadata
     id="metadata12">
    <rdf:RDF>
      <cc:Work
         rdf:about="">
        <dc:format>image/svg+xml</dc:format>
        <dc:type
           rdf:resource="http://purl.org/dc/dcmitype/StillImage" />
        <dc:title></dc:title>
      </cc:Work>
    </rdf:RDF>
  </metadata>
  <defs
     id="defs10" />
  <sodipodi:namedview
     pagecolor="#ffffff"
     bordercolor="#666666"
     borderopacity="1"
     objecttolerance="10"
     gridtolerance="10"
     guidetolerance="10"
     inkscape:pageopacity="0"
     inkscape:pageshadow="2"
     inkscape:window-width="2560"
     inkscape:window-height="1598"
     id="namedview8"
     showgrid="false"
     inkscape:zoom="0.13169643"
     inkscape:cx="782.10169"
     inkscape:cy="834.16948"
     inkscape:window-x="0"
     inkscape:window-y="54"
     inkscape:window-maximized="1"
     inkscape:current-layer="svg2"
     fit-margin-top="0"
     fit-margin-left="0"
     fit-margin-right="0"
     fit-margin-bottom="0" />
  <path
     style="fill:#999999;stroke-width:1.00000012"
     inkscape:connector-curvature="0"
     id="path6"
     d="m 1000,282.46154 q 0,93.75 -39.71354,179.08654 Q 920.57292,546.88462 853.51563,608.78366 786.45834,670.6827 694.01042,707.34135 601.5625,744.00001 500,744.00001 q -101.5625,0 -194.01042,-36.65866 Q 213.54167,670.6827 146.48438,608.78366 79.427084,546.88462 39.713542,461.54808 0,376.21154 0,282.46154 0,173.08654 52.408854,76.331736 104.81771,-20.423072 199.86979,-85.92788 q 27.99479,-19.23077 62.17448,-15.02404 34.17969,4.206733 54.36198,30.048079 20.83334,25.240385 15.95052,56.790865 -4.88281,31.550481 -32.22656,50.781251 -63.80208,44.471153 -98.63281,108.774035 -34.83073,64.30289 -34.83073,137.01923 0,62.5 26.36719,119.29087 26.36718,56.79087 71.28906,98.25721 44.92187,41.46635 106.44531,65.80529 61.52344,24.33894 129.23177,24.33894 67.70834,0 129.23177,-24.33894 61.52344,-24.33894 106.44532,-65.80529 44.92187,-41.46634 71.28906,-98.25721 26.36719,-56.79087 26.36719,-119.29087 0,-72.71634 -34.83073,-137.01923 -34.83073,-64.302882 -98.63281,-108.774035 -27.34375,-19.23077 -32.22657,-50.781251 -4.88281,-31.55048 15.95052,-56.790865 20.1823,-25.841346 54.6875,-30.048079 34.50521,-4.20673 61.84896,15.02404 Q 895.1823,-20.423072 947.59115,76.331736 1000,173.08654 1000,282.46154 Z M 583.33334,-179.07692 v 384.61539 q 0,31.25 -24.73959,54.08654 -24.73958,22.83653 -58.59375,22.83653 -33.85416,0 -58.59375,-22.83653 -24.73958,-22.83654 -24.73958,-54.08654 v -384.61539 q 0,-31.25 24.73958,-54.08654 Q 466.14584,-256 500,-256 q 33.85417,0 58.59375,22.83654 24.73959,22.83654 24.73959,54.08654 z"
     inkscape:export-xdpi="52.223995"
     inkscape:export-ydpi="52.223995" />
</svg>
