<?xml version="1.0" encoding="UTF-8" standalone="no"?>
<!-- Created with Inkscape (http://www.inkscape.org/) -->

<svg
   xmlns:dc="http://purl.org/dc/elements/1.1/"
   xmlns:cc="http://creativecommons.org/ns#"
   xmlns:rdf="http://www.w3.org/1999/02/22-rdf-syntax-ns#"
   xmlns:svg="http://www.w3.org/2000/svg"
   xmlns="http://www.w3.org/2000/svg"
   xmlns:sodipodi="http://sodipodi.sourceforge.net/DTD/sodipodi-0.dtd"
   xmlns:inkscape="http://www.inkscape.org/namespaces/inkscape"
   version="1.1"
   id="svg1756"
   width="256"
   height="256"
   viewBox="0 0 256 256"
   sodipodi:docname="popup-icon.svg"
   inkscape:version="0.92.2 2405546, 2018-03-11"
   inkscape:export-filename="/home/blake/github/possum/media/chrome-icon.png"
   inkscape:export-xdpi="96"
   inkscape:export-ydpi="96">
  <metadata
     id="metadata1762">
    <rdf:RDF>
      <cc:Work
         rdf:about="">
        <dc:format>image/svg+xml</dc:format>
        <dc:type
           rdf:resource="http://purl.org/dc/dcmitype/StillImage" />
        <dc:title></dc:title>
      </cc:Work>
    </rdf:RDF>
  </metadata>
  <defs
     id="defs1760" />
  <sodipodi:namedview
     pagecolor="#ffffff"
     bordercolor="#666666"
     borderopacity="1"
     objecttolerance="10"
     gridtolerance="10"
     guidetolerance="10"
     inkscape:pageopacity="0"
     inkscape:pageshadow="2"
     inkscape:window-width="2560"
     inkscape:window-height="1590"
     id="namedview1758"
     showgrid="false"
     inkscape:zoom="2.8284271"
     inkscape:cx="65.656011"
     inkscape:cy="172.67663"
     inkscape:window-x="0"
     inkscape:window-y="54"
     inkscape:window-maximized="1"
     inkscape:current-layer="svg1756"
     showguides="true"
     fit-margin-top="0"
     fit-margin-left="0"
     fit-margin-right="0"
     fit-margin-bottom="0" />
  <path
     id="path840-1"
     style="fill:#000000;fill-opacity:1;fill-rule:evenodd;stroke:#000000;stroke-width:0.06486797px;stroke-linecap:butt;stroke-linejoin:miter;stroke-opacity:1"
     d="m 14.468624,150.48901 c -4.9730013,-0.0206 -9.8606286,0.85088 -12.0913802,1.39161 5.5687789,29.25678 21.1879372,55.65929 44.1666002,74.65892 22.978667,18.99961 51.877912,29.40661 81.718966,29.42803 1.77762,-0.0258 3.55449,-0.0887 5.32949,-0.18835 2.8468,-0.19085 5.69017,-0.49127 8.52237,-0.79979 2.97332,-0.32391 5.91782,-0.88352 8.85851,-1.43111 4.01944,-0.74846 8.05166,-1.46917 12.03493,-2.39122 14.71168,-4.18009 26.86774,-9.57826 39.18883,-18.62439 -0.001,-0.11154 2.72207,-4.13618 1.8609,-4.97284 -1.33622,-1.29818 -3.86042,-0.32818 -5.56145,0.56845 -9.10447,6.25578 -20.19574,9.24055 -25.3798,10.19349 -3.8108,0.76045 -7.6811,1.209 -11.54775,1.59012 -5.30957,0.52332 -10.64429,1.11607 -15.97689,0.95399 -15.36694,-0.4907 -29.74093,-5.18553 -42.71063,-11.76674 C 92.731519,224.06519 83.791224,216.76544 75.989375,209.85897 66.658152,199.83991 61.260536,195.98812 52.419389,183.61033 50.894612,181.45289 49.371828,182.15278 42.403965,167.23461 37.77072,157.31481 28.506557,153.61479 22.543081,151.6072 c -2.40245,-0.80875 -5.251342,-1.10706 -8.074453,-1.11819 z M 133.84477,88.041076 c 4.56974,0.618515 12.29836,4.158567 12.62415,9.393646 0.59027,9.484908 -7.83472,20.040048 -20.58578,19.723908 -29.375132,1.64293 -36.616311,-0.10126 -36.616311,-0.10126 0,0 18.088481,-24.475425 31.630081,-27.559196 5.31526,-1.210446 9.39363,-1.938195 12.94786,-1.457143 z M 73.815718,66.464231 c 4.472644,0.57536 5.898184,11.342042 3.957593,16.73616 -2.213178,6.151806 -8.703223,8.001074 -15.638754,11.837028 -10.028706,5.546791 -19.588871,9.870541 -19.588871,9.870541 0,0 4.970448,-17.380484 13.025925,-26.933009 6.58824,-7.81264 13.629478,-12.104343 18.244107,-11.51072 z m 162.541832,8.160754 c -19.96034,15.665783 -48.94456,24.152388 -66.62193,30.542035 31.40514,-31.710149 14.1971,-51.216572 14.1971,-51.216572 17.63362,-5.529639 43.22314,6.736704 52.42483,20.674537 z M 88.422337,17.031317 c 20.798043,2.61152 48.728853,16.971634 46.339103,19.821372 -25.28706,1.934445 -41.110637,3.189965 -61.390364,21.541576 0,0 2.769243,-11.101279 2.170763,-17.883451 -0.677387,-7.676411 -2.677623,-15.777737 -5.115806,-20.601531 3.884009,-3.230171 10.473596,-3.82256 17.996304,-2.877966 z M 128.26281,0.03243754 c -1.76174,0.02605714 -3.52275,0.08822857 -5.28192,0.18674285 -2.18883,0.11748572 -4.34767,0.27060571 -6.47577,0.45936 C 84.684861,3.6025404 55.105085,18.277649 33.560521,41.828963 12.015961,65.380208 0.05914511,96.110631 0.03243403,128 c 0.0075886,2.7878 0.10646399,5.57458 0.29646308,8.35591 15.09704289,-4.22334 49.76580589,6.13321 53.74828589,21.52418 6.309447,20.0726 18.230487,28.14771 18.230487,28.14771 22.946018,5.48041 43.99395,0.5912 43.99395,0.5912 0,0 -7.72487,-6.03326 -10.39421,-10.04092 -2.78122,-4.17563 -5.47316,-14.01502 -5.47316,-14.01502 0,0 17.82871,-1.53218 25.44173,-2.24724 19.11107,-0.43269 17.71806,22.35273 27.41705,26.86171 6.81184,3.16679 25.03292,0.57161 32.10484,-1.92493 2.75765,-0.97354 -17.93431,-14.94119 -10.28693,-26.26675 29.63477,-6.42489 41.60129,-0.52752 41.60129,-0.52752 4.08541,10.43795 0.88717,17.89351 -6.19854,26.79977 0,0 21.65572,2.0558 33.61182,-2.7866 5.92333,-12.50137 9.77702,-25.87824 11.41122,-39.61024 0.20251,-3.72258 0.33831,-7.22544 0.43083,-10.26238 -0.10423,-14.76663 -2.00071,-30.36286 -6.35826,-45.470421 C 233.63917,39.873214 191.6147,6.1814432 141.93336,0.8027461 141.19507,0.7323461 140.4525,0.66583182 139.70543,0.60388896 135.90166,0.24338611 132.08364,0.05273468 128.26281,0.03248325 Z"
     inkscape:connector-curvature="0"
     sodipodi:nodetypes="ccsccccccsccccccccccccacccccsacccsccccsccscscccccccccsccccccccccccccc"
     inkscape:export-xdpi="96"
     inkscape:export-ydpi="96" />
</svg>
