<?xml version="1.0" encoding="UTF-8" standalone="no"?>
<!-- Created with Inkscape (http://www.inkscape.org/) -->

<svg
   xmlns:dc="http://purl.org/dc/elements/1.1/"
   xmlns:cc="http://creativecommons.org/ns#"
   xmlns:rdf="http://www.w3.org/1999/02/22-rdf-syntax-ns#"
   xmlns:svg="http://www.w3.org/2000/svg"
   xmlns="http://www.w3.org/2000/svg"
   xmlns:sodipodi="http://sodipodi.sourceforge.net/DTD/sodipodi-0.dtd"
   xmlns:inkscape="http://www.inkscape.org/namespaces/inkscape"
   version="1.1"
   id="svg1756"
   width="6051.4102"
   height="6051.4102"
   viewBox="0 0 6051.4101 6051.4101"
   sodipodi:docname="possum.svg"
   inkscape:version="0.92.2 5c3e80d, 2017-08-06"
   inkscape:export-filename="/home/blake/github/possum/possum.svg.png"
   inkscape:export-xdpi="11.9"
   inkscape:export-ydpi="11.9">
  <metadata
     id="metadata1762">
    <rdf:RDF>
      <cc:Work
         rdf:about="">
        <dc:format>image/svg+xml</dc:format>
        <dc:type
           rdf:resource="http://purl.org/dc/dcmitype/StillImage" />
        <dc:title></dc:title>
      </cc:Work>
    </rdf:RDF>
  </metadata>
  <defs
     id="defs1760" />
  <sodipodi:namedview
     pagecolor="#ffffff"
     bordercolor="#666666"
     borderopacity="1"
     objecttolerance="10"
     gridtolerance="10"
     guidetolerance="10"
     inkscape:pageopacity="0"
     inkscape:pageshadow="2"
     inkscape:window-width="2560"
     inkscape:window-height="1598"
     id="namedview1758"
     showgrid="false"
     inkscape:zoom="0.16555278"
     inkscape:cx="4327.3324"
     inkscape:cy="2761.0043"
     inkscape:window-x="0"
     inkscape:window-y="54"
     inkscape:window-maximized="1"
     inkscape:current-layer="svg1756"
     showguides="false"
     fit-margin-top="0"
     fit-margin-left="0"
     fit-margin-right="0"
     fit-margin-bottom="0" />
  <path
     id="path10563"
     style="fill:#000000;fill-opacity:1;stroke:#000000;stroke-width:1.88999999;stroke-miterlimit:4;stroke-dasharray:none;stroke-opacity:1"
     d="m 4918.3172,4847.2892 c 0,0 -179.798,200.4734 -285.108,283.2915 -155.647,122.4049 -323.943,233.5 -506.242,310.8069 -264.702,112.2515 -549.107,188.2937 -835.412,214.6937 -293.892,27.0996 -595.4754,5.0404 -883.3911,-59.8521 -253.6903,-57.1784 -501.6673,-154.2924 -725.7426,-286.2717 C 1481.9448,5191.8779 1305.993,5032.8751 1143.586,4866.2685 965.23132,4683.3021 804.56662,4480.4627 671.59102,4262.2777 581.98389,4115.2516 498.71258,3959.7541 455.61998,3793.0533 c -28.5792,-110.5565 -29.6788,-227.5051 -25.5212,-341.6201 11.1989,-307.3642 17.05572,-657.9845 132.49893,-948.9407 -6.0755,-199.8067 231.43761,-551.4016 231.43761,-551.4016 -133.9834,39.2425 -466.90573,279.3516 -263.37783,37.1706 144.76863,-115.5932 269.87373,-349.4925 460.08013,-457.9814 182.43958,-109.0777 -219.0894,39.0848 -293.9365,-70.874 -220.99784,30.812 442.40608,-112.347 264.2235,-132.1048 224.19988,-134.9521 492.17658,-190.1053 685.40108,-377.4603 282.2872,-135.4672 529.717,-343.59757 848.7693,-393.69718 340.3859,-78.1284 713.635,-38.47029 1032.1396,50.68101 161.433,8.7008 413.1029,111.11468 536.1816,151.6735 -109.381,-231.0862 141.363,78.0491 159.771,88.3247 l 78.399,-124.5316 c 123.194,225.598 382.125,339.52707 565.338,517.10157 -36.412,-128.8 -357.438,-348.01317 -308.586,-340.96567 271.518,206.25567 460.021,490.10567 658.24,759.38687 159.273,253.7576 295.079,508.4233 342.746,807.1478 74.006,242.4319 93.201,578.3201 90.639,867.218 -14.3,329.9254 -148.399,596.3094 -257.651,907.3032 -61.134,126.7644 -66.368,123.2546 -118.571,106.2824 -145.883,-40.2199 -331.247,84.9763 -482.348,3.4799 -186.338,72.8221 -374.346,0.9146 -144.664,-104.1737 188.153,-148.5996 360.212,-187.409 285.795,-392.2241 131.784,-226.2745 -455.734,215.0785 -214.478,-59.975 -71.013,-111.6775 -453.595,-93.5746 -626.548,-9.0023 -193.826,23.638 -54.122,295.7066 -143.272,206.4634 95.911,56.9535 445.218,284.1486 191.265,328.0573 -232.158,-138.8893 -657.454,258.6797 -576.281,-174.6161 0,0 26.3883,-202.8663 -36.93,-266.2706 -57.7432,-57.8218 -242.78,-34.0083 -242.78,-34.0083 0,0 -980.2087,147.6656 -898.6734,60.0373 -208.4767,21.2297 115.6484,197.8183 238.4255,233.9661 169.5418,24.3522 556.7709,3.8196 403.5759,271.7033 -46.145,215.9865 -247.205,-94.1902 -409.2572,-1.854 -306.3593,16.9654 -603.1756,-81.0139 -899.6652,-142.5049 -253.443,-119.4023 117.6919,183.8458 49.9218,169.9003 329.3133,367.1972 726.5142,728.1522 1228.1836,843.62 141.342,10.6999 281.6,37.1257 423.042,40.9288 183.588,25.4439 270.018,-71.2247 509.198,-75.2449 223.38,-47.6521 432.327,-166.3468 639.049,-258.4956 0,0 178.11,-136.9019 209.396,-177.077 30.162,-38.7312 189.257,27.3678 141.521,38.8137 z m -7.01,-3456.5207 c -252.23,-215.8696 -531.736,-406.61397 -845.615,-528.63407 -362.327,-160.7669 -762.747,-222.5775 -1154.9425,-265.8585 -449.6213,-35.0144 -863.9746,173.5015 -1219.8651,416.05577 -305.5248,217.7871 -536.509,515.8558 -751.49328,814.7404 -53.8925,104.3458 -107.785,208.6915 -161.6775,313.0373 -213.24203,354.4614 -295.69424,768.4564 -274.61424,1175.6747 -29.3356,150.4198 -64.038,309.407 115.96684,193.0221 166.8651,-114.6282 489.46408,-97.48 661.49238,60.8361 153.2688,266.399 133.4189,254.8106 148.8841,367.2275 -38.2439,239.7737 209.1289,221.3111 333.1261,87.8731 127.2978,-52.9933 230.0585,-45.0931 53.521,25.1203 -117.1412,46.9512 -321.4578,163.1172 -78.8119,178.6525 234.1244,74.7273 483.1586,112.7548 726.6121,147.5363 131.5373,-27.515 657.931,-35.5987 314.5877,-120.4007 -280.5447,-55.4483 -481.9418,-300.6937 -678.4877,-342.9319 255.8017,-59.9974 631.3508,-125.9251 934.376,-124.3179 235.743,-39.6781 458.897,-67.0096 661.199,39.2161 310.359,25.2768 -249.125,-53.7385 -69.115,152.4727 86.184,113.6654 -68.247,435.7418 189.477,300.4334 137.609,-41.2415 506.338,68.7441 277.106,-150.5104 -224.232,-28.2801 -200.01,-236.8694 -116.169,-374.4848 204.382,-94.6859 518.314,-83.9046 769.397,-36.9176 129.185,28.3118 -135.798,192.1698 75.461,84.9783 117.133,-4.3547 141.387,-218.1678 170.143,13.2272 81.884,180.1756 -283.976,611.8785 -88.988,291.6938 44.5138,-47.2343 -60.4814,-2.8588 -222.866,195.7501 212.624,36.5399 379.572,-62.3567 550.077,-33.7427 86.37,-202.935 335.296,-486.8012 230.401,-683.7447 62.005,-165.9258 39.627,-348.045 50.27,-550.787 -12.402,-204.8714 -127.786,-397.6708 -85.807,-604.7968 9.98,-320.1933 -159.397,-562.7872 -316.998,-813.1793 -53.288,-84.6675 -120.439,-162.02 -196.647,-227.2413 z m -167.511,338.4526 c -173.66,8.4751 -423.433,239.7757 -583.56,290.4577 -161.27,113.9433 -88.812,52.1092 14.008,-33.0971 171.722,-168.0915 451.111,-267.2999 705.002,-409.5534 225.897,-149.1602 -543.668,-160.5846 -420.38,-150.0489 -118.129,39.9413 -467.172,-176.8122 -199.771,-67.4298 212.152,54.8703 528.116,-10.8391 733.846,157.7677 -12.365,0.4488 -140.672,157.1081 -249.145,211.9038 z m 334.675,2349.8605 c 139.574,-178.9385 277.9064,-379.6919 224.4564,-618.4622 -16.843,-193.3414 -132.3764,-690.2687 -42.0364,-607.5593 153.657,164.8166 21.033,466.5989 70.492,696.5553 29.305,212.0188 -130.447,387.951 -252.912,529.4662 z M 2745.757,1618.1434 c 100.8823,176.1137 -173.6148,436.8415 -341.5911,504.9151 l -117.0316,37.3132 c -18.7572,5.9804 -42.2238,15.9476 -43.3375,7.3802 l -2.5496,-19.6144 c 0,0 111.705,-39.6964 160.3458,-56.7325 0,0 -31.4542,-66.2212 -11.0303,-106.3174 23.9523,-47.0234 21.0257,-44.9094 15.4446,-47.6258 l -6.3518,-3.0916 c -6.6341,-3.2289 -22.8184,7.0171 -70.266,51.9596 -229.2512,170.2954 -431.1119,391.0432 -578.7399,623.9138 60.437,93.2236 228.3841,43.274 213.8802,81.8297 304.9087,-22.9876 612.4221,-28.2973 916.5257,-43.7176 l 290.6037,5.9161 c 167.183,-7.1563 603.561,62.9791 559.157,205.4996 -116.995,-12.5808 -213.017,-201.9693 -208.905,3.0961 -117.264,8.7246 -207.624,199.581 -262.176,306.8744 -117.32,68.6877 -289.7375,144.087 -172.229,18.1759 38.45,-61.9335 -73.877,-230.4256 -74.955,-316.8485 -36.6825,88.901 49.339,455.0914 -4.069,207.8204 12.262,86.9284 -80.774,268.0886 -28.88,79.6257 -14.1032,-163.4196 -48.8255,-303.9888 -41.3327,-471.1427 -109.0068,184.8215 -7.7551,461.1879 -51.7466,680.7402 94.5003,280.803 384.6383,-87.4717 523.1973,-165.5394 99.66,-54.6903 258.064,-482.701 151.85,-197.9411 -24.342,82.9613 -222.033,280.2527 22.705,159.9697 160.687,-115.9635 427.75,0.4177 513.398,-102.8313 74.308,-28.4949 -190.363,479.4573 16.47,234.586 96.179,-82.0805 193.752,-247.3176 216.599,-65.6726 -152.745,132.1175 207.4338,68.9753 216.617,142.1265 82.2672,-6.0788 212.6604,-28.1488 294.4389,-77.5956 94.3639,-57.0564 135.7618,-134.9923 155.5811,-182.8377 -13.0071,113.9649 -188.559,413.7505 -77.414,143.8786 -89.4323,136.8782 -338.166,119.6208 -359.66,143.8539 -120.506,43.1519 -384.85,50.273 -111.569,93.0039 111.781,-9.1983 374.985,-72.6895 435.033,-76.1334 -199.136,69.4232 -723.433,217.4314 -644.97,-142.4429 -83.22,70.9356 -422.871,319.119 -237.696,53.0566 -31.754,43.7412 -90.869,-45.8681 -20.731,-153.3194 -127.484,73.1815 -407.189,21.1722 -544.071,86.2063 -166.835,79.2656 -239.325,183.7243 -405.723,253.7322 -232.6166,24.8127 -192.9181,-245.003 -205.5264,-323.35 -13.8792,-205.4621 133.7168,-591.0745 -240.5138,-489.0172 -289.0164,-26.8183 -628.6736,69.3307 -879.7906,12.7782 -151.6867,-147.0162 130.4521,-300.5902 263.06,-462.8021 127.1766,-180.7841 358.3658,-255.8748 475.8509,-441.7995 111.7479,-30.312 126.176,-185.6403 195.3324,-227.6656 -210.0395,29.5757 239.0022,-174.2537 233.7292,-227.9276 -91.1801,-143.3843 -481.4581,-316.202 -341.3058,-459.74887 101.2505,-21.35809 383.8894,2.34496 349.0649,6.82058 -164.1706,7.69468 203.0192,58.05212 201.4252,25.63292 136.557,38.2969 525.235,123.39937 191.277,59.1622 -149.051,-49.897 156.967,108.92987 -50.598,21.89767 -206.4367,-47.34822 -563.0135,-96.16224 -691.6517,-35.33337 147.9748,145.33947 306.369,349.12097 509.5297,393.94987 62.06,-180.1627 166.805,-208.7064 343.274,-318.1792 -72.726,80.54 -229.2085,158.4122 -222.5415,240.6898 -26.8573,62.2877 -181.648,85.398 -39.012,165.8875 -116.575,-39.6947 -296.6493,-126.9734 -243.4807,-33.4932 -78.739,15.1871 -169.049,154.5705 -151.5952,171.854 z m 113.801,1583.8461 c 22.4842,-109.4078 -15.4174,-406.8356 -13.5043,-132.2904 6.3618,14.2441 -11.5159,167.0224 13.5043,132.2904 z m 328.0032,-47.6662 c -10.794,-52.5405 -52.353,33.3953 0,0 z m -38.781,-15.187 c 131.343,-156.313 480.028,-503.8427 38.02,-440.5495 -269.8582,-102.3856 -111.767,390.9636 -38.02,440.5495 z m 96.128,-14.8344 c 49.741,6.8294 -85.944,5.8011 0,0 z m 40.949,-79.1487 c 37.293,-89.2386 -85.602,22.5549 0,0 z m 60.898,-77.132 c -8.505,-47.9669 -64.242,26.2024 0,0 z m 58.563,-77.8575 c 57.509,-58.7826 -87.228,4.9957 0,0 z m -443.5624,-25.3878 c 112.4034,-114.7178 -35.648,-59.3997 0,0 z m 521.9554,-72.8658 c -12.258,-33.5735 -43.713,19.1054 0,0 z m 242.865,319.7791 c 0.305,-0.8211 0.305,-0.8211 0,0 z M 1963.346,2648.3037 c -31.8111,-99.966 -297.7833,9.4732 -100.8662,-99.6554 125.1126,-5.4311 258.3055,-101.7727 154.0154,79.5826 64.3947,8.7393 -50.5156,24.9372 -53.1492,20.0728 z M 3353.3552,2382.633 c -120.926,-25.303 -275.439,-11.1642 -247.138,-77.6449 -117.43,-72.7025 222.645,19.2332 91.656,-101.0954 9.225,-142.1029 -280.8464,117.6076 -116.528,-99.0227 193.64,-149.5633 618.287,-233.3128 736.571,63.4438 -142.458,90.9314 -287.573,196.9337 -464.561,214.3192 z m 126.667,-204.1751 c 191.691,-139.8485 -288.226,-115.1725 0,0 z m -33.202,-113.0273 c -1.831,0.7077 -1.831,0.7077 0,0 z m 123.584,-230.5119 c -4.559,-191.2815 -87.149,-342.75 -202.1017,-297.4707 -86.7143,11.2067 -292.4749,17.3506 -270.3972,7.6791 l 103.994,-45.5559 c 66.6694,-23.8652 165.3137,-59.6065 178.14,-54.5132 19.7602,7.8467 -35.0534,52.997 -132.2314,73.9694 127.925,0.3533 485.6905,-61.9213 365.8365,-6.4335 -77.378,56.8332 -37.6392,335.4247 59.2998,183.5296 -23.523,81.0713 -48.808,108.1655 -102.54,138.7952 z m -244.139,-467.3125 c 142.598,-135.1299 507.428,-189.1541 163.968,-306.0096 51.8788,6.0594 103.0284,31.7968 156.3259,34.6856 98.6865,5.349 176.2125,-6.6995 78.2201,62.6677 37.401,33.1438 -346.0254,105.3998 -200.681,160.8524 -62.339,21.781 -142.218,0.3532 -197.833,47.8039 z m -359.026,-9.3526 c 1.1781,0 1.1781,0 0,0 z m 832.827,-235.7839 c 162.173,-31.7478 208.855,5.7582 0,0 z"
     inkscape:export-xdpi="96"
     inkscape:export-ydpi="96"
     inkscape:connector-curvature="0" />
</svg>
